<svg width="21" height="12" viewBox="0 0 21 12" fill="none" xmlns="http://www.w3.org/2000/svg">
<path d="M16.922 4.83706L17.0244 4.92499H16.8894H2.06563C1.48604 4.92499 1.02921 5.32899 1.02921 5.81249C1.02921 6.29599 1.48604 6.69999 2.06563 6.69999H16.8894H17.0244L16.922 6.78792L13.1107 10.0609C12.7086 10.4063 12.7071 10.9641 13.1073 11.311L13.0745 11.3488L13.1073 11.311C13.5118 11.6618 14.172 11.6631 14.5784 11.3141L20.2546 6.43953L20.2551 6.43912L20.2551 6.43911L20.2561 6.43822C20.6583 6.09174 20.6571 5.53212 20.256 5.18677L20.256 5.18679L20.255 5.18585L20.2545 5.18545L14.5783 0.31093C14.1718 -0.0381451 13.5117 -0.0368112 13.1071 0.31396L13.0744 0.276184L13.1071 0.313962C12.707 0.66092 12.7085 1.21868 13.1106 1.56406L16.922 4.83706ZM20.2886 5.14888C20.7128 5.51413 20.7142 6.10963 20.2887 6.4761L20.2877 5.14799L20.2886 5.14888Z" fill="#7C8998" stroke="#01102F" stroke-width="0.1"/>
</svg>
