<svg width="24" height="24" viewBox="0 0 24 24" fill="none" xmlns="http://www.w3.org/2000/svg">
<path d="M11.0777 7.84237C10.9609 7.52029 10.843 7.19556 10.8409 7.19131C10.7846 7.06641 10.6545 6.98775 10.5173 7.00157C10.4305 7.00848 8.37714 7.18387 7.06143 8.23354C6.37357 8.86387 5 12.5491 5 15.7354C5 15.7917 5.01446 15.8464 5.04286 15.8953C5.99161 17.5482 8.57804 17.9809 9.16732 17.9995C9.17107 18 9.17429 18 9.1775 18C9.28143 18 9.37893 17.9506 9.44107 17.8671L10.0786 17.0104C9.02536 16.8515 8.83518 16.6442 8.79071 16.6118C8.55286 16.438 8.37714 16.1946 8.59036 15.8874C8.75429 15.6487 9.09821 15.5701 9.36179 15.7045C9.63179 15.8294 10.3545 16.2312 12.5 16.2206C14.6305 16.2142 15.5659 15.7715 15.5793 15.7619C15.9371 15.602 16.2162 15.6679 16.3904 15.9049C16.5977 16.2275 16.4498 16.446 16.213 16.6192C16.1686 16.6516 16.0609 16.7425 14.9295 17.0083L15.5589 17.8666C15.6205 17.9506 15.7186 17.9995 15.8225 17.9995C15.8262 17.9995 15.8295 17.9995 15.8327 17.9989C16.4225 17.9803 19.0089 17.5477 19.9571 15.8948C19.9855 15.8459 20 15.7912 20 15.7348C20 12.5491 18.6264 8.86387 17.9214 8.21972C16.6229 7.1844 14.5695 7.00901 14.4827 7.00157C14.3455 6.98988 14.2154 7.06694 14.1591 7.19131C14.157 7.19556 14.0423 7.52561 13.9314 7.84396C13.9314 7.84396 13.0577 7.71694 12.5 7.71694C11.9423 7.71694 11.0777 7.84237 11.0777 7.84237ZM10.3571 14.6262C9.76518 14.6262 9.28571 13.9177 9.28571 13.0429C9.28571 12.1681 9.76518 11.4596 10.3571 11.4596C10.9512 11.3719 11.4157 12.1681 11.4286 13.0429C11.4286 13.9177 10.9491 14.6262 10.3571 14.6262ZM14.6429 14.6262C14.0509 14.6262 13.5714 13.9129 13.5714 13.0333C13.5714 12.1537 14.0509 11.4405 14.6429 11.4405C15.2348 11.4405 15.7143 12.1537 15.7143 13.0333C15.7143 13.9129 15.2348 14.6262 14.6429 14.6262Z" fill="#DA1FA2"/>
</svg>
