<svg width="24" height="24" viewBox="0 0 24 24" fill="none" xmlns="http://www.w3.org/2000/svg">
<path d="M19.1719 5H5.82812C5.37063 5 5 5.37063 5 5.82812V19.1725C5 19.6294 5.37063 20 5.82812 20H13.0125V14.1912H11.0575V11.9275H13.0125V10.2581C13.0125 8.32063 14.1956 7.26562 15.9244 7.26562C16.7525 7.26562 17.4637 7.3275 17.6713 7.355V9.38L16.4725 9.38062C15.5325 9.38062 15.3506 9.8275 15.3506 10.4825V11.9281H17.5925L17.3006 14.1919H15.3506V20H19.1731C19.6294 20 20 19.6294 20 19.1719V5.82812C20 5.37063 19.6294 5 19.1719 5V5Z" fill="#7C8998"/>
</svg>
