<svg width="34" height="38" viewBox="0 0 34 38" fill="none" xmlns="http://www.w3.org/2000/svg">
<path d="M27.563 3.36352L17.2672 0L6.61991 3.35849L-3.05176e-05 12.6767V24.8528L6.60787 34.0604L16.9976 38L27.5702 34.0604L34 24.8478V12.6843L27.563 3.36352ZM18.0519 3.49686L30.6057 13.0113L18.0519 17.4994V3.49686ZM16.4728 17.5119L3.45678 13.0063L16.4728 3.4566V17.5119ZM15.9937 19.0818L7.94149 30.7396L2.94404 14.566L15.9937 19.0818ZM17.2503 20.078L25.0161 31.7233H9.2077L17.2503 20.078ZM18.5069 19.0792L31.0631 14.5887L26.2342 30.6692L18.5069 19.0792ZM31.169 11.4038L19.2652 2.37987L26.5905 4.77233L31.169 11.4038ZM7.57558 4.77736L15.2042 2.37233L2.84052 11.444L7.57558 4.77736ZM1.57672 15.5019L6.3527 30.9585L1.57672 24.3044V15.5019ZM9.40991 33.3711H24.7272L17.0024 36.2491L9.40991 33.3711ZM27.8133 30.9132L32.4208 15.5748V24.3094L27.8133 30.9132Z" fill="#DA1FA2"/>
</svg>
