<svg width="37" height="37" viewBox="0 0 37 37" fill="none" xmlns="http://www.w3.org/2000/svg">
<path d="M18.25 0C8.17102 0 -3.05176e-05 8.28298 -3.05176e-05 18.5C-3.05176e-05 28.717 8.17102 37 18.25 37C28.3289 37 36.5 28.717 36.5 18.5C36.5 8.28298 28.3289 0 18.25 0ZM18.25 35.2357C9.14624 35.2357 1.74047 27.7284 1.74047 18.5C1.74047 9.27155 9.14624 1.76434 18.25 1.76434C27.3537 1.76434 34.7595 9.27155 34.7595 18.5C34.7595 27.7284 27.3537 35.2357 18.25 35.2357Z" fill="#7C8998"/>
<path d="M22.5042 5.88843C18.2101 5.88843 14.7158 9.43058 14.7158 13.7835C14.7158 18.1365 18.2101 21.6786 22.5042 21.6786C26.7984 21.6786 30.2927 18.1365 30.2927 13.7835C30.2953 9.43058 26.7984 5.88843 22.5042 5.88843ZM22.5042 19.9143C19.1694 19.9143 16.4563 17.1641 16.4563 13.7835C16.4563 10.403 19.1694 7.65277 22.5042 7.65277C25.8391 7.65277 28.5522 10.403 28.5522 13.7835C28.5522 17.1641 25.8391 19.9143 22.5042 19.9143Z" fill="#7C8998"/>
<path d="M20.5645 3.58252C13.5706 3.58252 7.88138 9.34963 7.88138 16.4393C7.88138 23.529 13.5706 29.2961 20.5645 29.2961C27.5583 29.2961 33.2475 23.529 33.2475 16.4393C33.2475 9.34963 27.5583 3.58252 20.5645 3.58252ZM20.5645 27.5318C14.5298 27.5318 9.62188 22.5566 9.62188 16.4393C9.62188 10.322 14.5298 5.34686 20.5645 5.34686C26.5991 5.34686 31.507 10.322 31.507 16.4393C31.507 22.5566 26.5991 27.5318 20.5645 27.5318Z" fill="#7C8998"/>
</svg>
