<svg width="35" height="37" viewBox="0 0 35 37" fill="none" xmlns="http://www.w3.org/2000/svg">
<path d="M17.4885 0L-3.05176e-05 7.75905V29.1479L17.4885 37L34.8857 29.1479V7.7615L17.4885 0ZM19.4862 2.65003L32.9225 8.64321L28.0047 16.897L19.4862 2.65003ZM27.0626 18.4718L17.4835 34.5459L7.85511 18.4718L17.4835 2.44675L27.0626 18.4718ZM6.91546 16.9043L1.96561 8.64321L15.4834 2.64513L6.91546 16.9043ZM5.97333 18.4718L1.61539 25.7215V11.1977L5.97333 18.4718ZM6.91299 20.0393L15.4784 34.3377L1.96561 28.2711L6.91299 20.0393ZM28.0047 20.0442L32.9225 28.2711L19.4911 34.3353L28.0047 20.0442ZM28.9419 18.4718L33.2678 11.2124V25.7092L28.9419 18.4718Z" fill="#7C8998"/>
</svg>
